<svg id="eVX81ClgxSP1" xmlns="http://www.w3.org/2000/svg" xmlns:xlink="http://www.w3.org/1999/xlink" viewBox="0 0 512 512" shape-rendering="geometricPrecision" text-rendering="geometricPrecision"><path id="eVX81ClgxSP2" d="M256,504C119,504,8,393,8,256C8,119,119,8,256,8C393,8,504,119,504,256C504,393,393,504,256,504ZM372,212L256,212L256,141.1C256,130.4,243,125,235.5,132.6L121.2,247.5C116.5,252.2,116.5,259.7,121.2,264.4L235.5,379.3C243.1,386.9,256,381.5,256,370.8L256,300L372,300C378.6,300,384,294.6,384,288L384,224C384,217.4,378.6,212,372,212Z" fill="rgb(255,255,255)" stroke="none" stroke-width="1"/></svg>