<?xml version="1.0" encoding="UTF-8" standalone="no" ?>
<!DOCTYPE svg PUBLIC "-//W3C//DTD SVG 1.1//EN" "http://www.w3.org/Graphics/SVG/1.1/DTD/svg11.dtd">
<svg xmlns="http://www.w3.org/2000/svg" xmlns:xlink="http://www.w3.org/1999/xlink" version="1.1" width="460" height="460" viewBox="0 0 460 460" xml:space="preserve">
<desc>Created with Fabric.js 3.6.3</desc>
<defs>
</defs>
<g transform="matrix(1 0 0 1 229.5 229.5)"  >
<path style="stroke: none; stroke-width: 1; stroke-dasharray: none; stroke-linecap: butt; stroke-dashoffset: 0; stroke-linejoin: miter; stroke-miterlimit: 4; fill: rgb(255,255,255); fill-rule: nonzero; opacity: 1;"  transform=" translate(-224, -224)" d="M 100.28 448 H 7.4 V 148.9 h 92.88 z M 53.79 108.1 C 24.09 108.1 0 83.5 0 53.8 a 53.79 53.79 0 0 1 107.58 0 c 0 29.7 -24.1 54.3 -53.79 54.3 z M 447.9 448 h -92.68 V 302.4 c 0 -34.7 -0.7 -79.2 -48.29 -79.2 c -48.29 0 -55.69 37.7 -55.69 76.7 V 448 h -92.78 V 148.9 h 89.08 v 40.8 h 1.3 c 12.4 -23.5 42.69 -48.3 87.88 -48.3 c 94 0 111.28 61.9 111.28 142.3 V 448 z" stroke-linecap="round" />
</g>
</svg>